<?xml version="1.0" encoding="iso-8859-1"?>
<!-- Generator: Adobe Illustrator 19.0.0, SVG Export Plug-In . SVG Version: 6.00 Build 0)  -->
<svg version="1.1" id="Capa_1" xmlns="http://www.w3.org/2000/svg" xmlns:xlink="http://www.w3.org/1999/xlink" x="0px" y="0px"
	 viewBox="0 0 512 512" style="enable-background:new 0 0 512 512;" xml:space="preserve">
<g>
	<g>
		<path d="M496,0H16C7.168,0,0,7.168,0,16v384c0,8.832,7.168,16,16,16h160v64h-48v32h256v-32h-48v-64h160c8.832,0,16-7.168,16-16V16
			C512,7.168,504.832,0,496,0z M304,480h-96v-64h96V480z M480,384H32v-64h448V384z M304,192h80v96H128V96h160v80
			C288,184.832,295.168,192,304,192z M320,160v-41.376L361.376,160H320z M480,288h-64V176c0-4.24-1.68-8.32-4.688-11.312l-96-96
			C312.32,65.68,308.24,64,304,64H112c-8.832,0-16,7.168-16,16v208H32V32h448V288z"/>
	</g>
</g>
<g>
	<g>
		<rect x="160" y="128" width="32" height="32"/>
	</g>
</g>
<g>
	<g>
		<rect x="160" y="176" width="96" height="32"/>
	</g>
</g>
<g>
	<g>
		<rect x="160" y="224" width="96" height="32"/>
	</g>
</g>
<g>
</g>
<g>
</g>
<g>
</g>
<g>
</g>
<g>
</g>
<g>
</g>
<g>
</g>
<g>
</g>
<g>
</g>
<g>
</g>
<g>
</g>
<g>
</g>
<g>
</g>
<g>
</g>
<g>
</g>
</svg>
