<?xml version="1.0" encoding="iso-8859-1"?>
<!-- Generator: Adobe Illustrator 16.0.0, SVG Export Plug-In . SVG Version: 6.00 Build 0)  -->
<!DOCTYPE svg PUBLIC "-//W3C//DTD SVG 1.1//EN" "http://www.w3.org/Graphics/SVG/1.1/DTD/svg11.dtd">
<svg xmlns="http://www.w3.org/2000/svg" xmlns:xlink="http://www.w3.org/1999/xlink" version="1.1" id="Capa_1" x="0px" y="0px" width="512px" height="512px" viewBox="0 0 304.565 304.566" style="enable-background:new 0 0 304.565 304.566;" xml:space="preserve">
<g>
	<circle cx="109.951" cy="72.819" r="24.005" fill="#33c5cc"/>
	<path d="M148.505,98.786c-10.717,2.468-23.528,3.749-38.333,3.749H78.749c-5.808,0-10.513,4.708-10.513,10.513v95.762   c0,5.808,4.705,10.513,10.513,10.513v4.511v67.643c0,7.23,5.862,13.09,13.091,13.09c7.229,0,13.092-5.859,13.092-13.09V223.83   h10.475v67.643c0,7.234,5.862,13.094,13.091,13.094c7.229,0,13.091-5.859,13.091-13.094V223.83v-22.695v-79.68   c2.374-0.349,4.661-0.756,6.911-1.194v27.75h87.828V0h-87.824V98.786z M159.02,117.782c18.623-5.253,32.127-14.063,40.299-26.419   c16.084-24.327,4.593-52.046,4.093-53.216c-2.275-5.344-8.466-7.821-13.791-5.554c-5.339,2.274-7.83,8.449-5.558,13.793   c0.075,0.181,7.48,18.618-2.279,33.381c-4.523,6.838-12.224,12.174-22.764,15.97V10.513h66.797v126.984H159.02V117.782z" fill="#33c5cc"/>
</g>
<g>
</g>
<g>
</g>
<g>
</g>
<g>
</g>
<g>
</g>
<g>
</g>
<g>
</g>
<g>
</g>
<g>
</g>
<g>
</g>
<g>
</g>
<g>
</g>
<g>
</g>
<g>
</g>
<g>
</g>
</svg>
